<svg xmlns="http://www.w3.org/2000/svg" viewBox="0 0 524 548.4"><defs><style>.cls-1{fill:#ffac06;}.cls-1,.cls-2,.cls-3{stroke:#666;}.cls-1,.cls-3{stroke-miterlimit:10;stroke-width:8px;}.cls-2{fill:#00bf12;stroke-miterlimit:10;stroke-width:5px;}.cls-3{fill:none;}</style></defs><g id="Слой_2" data-name="Слой 2"><g id="Слой_1-2" data-name="Слой 1"><g id="Слой_2-2" data-name="Слой 2"><g id="Слой_1-2-2" data-name="Слой 1-2"><path class="cls-1" d="M512.7,179.4a125,125,0,0,1,7.3,42.14V406c0,76.45-69.32,138.42-154.83,138.42H158.83C73.32,544.4,4,482.43,4,406V221.54C4,145.09,73.3,83.11,158.81,83.1H365.17c67.37,0,127,38.93,147.53,96.3"/><ellipse class="cls-2" cx="263.8" cy="83.55" rx="81.08" ry="54.92" transform="translate(170.66 344.12) rotate(-87.9)"/><rect class="cls-3" x="140.84" y="180.93" width="63.84" height="62.45" transform="translate(200.62 -60.02) rotate(45)"/><rect class="cls-3" x="141.82" y="270.23" width="63.84" height="62.45" transform="translate(264.05 -34.56) rotate(45)"/><rect class="cls-3" x="52.52" y="269.25" width="63.84" height="62.45" transform="translate(237.2 28.3) rotate(45)"/><ellipse class="cls-2" cx="320.29" cy="93.33" rx="81.08" ry="54.92" transform="translate(38.27 271.55) rotate(-48.54)"/><ellipse class="cls-2" cx="201.39" cy="93.33" rx="54.92" ry="81.08" transform="translate(-18.18 125.83) rotate(-33.28)"/></g></g><rect class="cls-3" x="49.17" y="177.58" width="63.84" height="62.45" transform="translate(171.4 3.82) rotate(45)"/><rect class="cls-3" x="142.85" y="363.45" width="63.84" height="62.45" transform="translate(330.27 -7.98) rotate(45)"/><rect class="cls-3" x="51.21" y="362.44" width="63.84" height="62.45" transform="translate(302.71 56.52) rotate(45)"/><rect class="cls-3" x="236.07" y="364.48" width="63.84" height="62.45" transform="translate(358.3 -73.6) rotate(45)"/><rect class="cls-3" x="233.1" y="273.2" width="63.84" height="62.45" transform="translate(292.88 -98.24) rotate(45)"/><rect class="cls-3" x="231.88" y="179.59" width="63.84" height="62.45" transform="translate(226.34 -124.79) rotate(45)"/><rect class="cls-3" x="142.68" y="453.91" width="63.84" height="62.45" transform="translate(394.18 18.63) rotate(45)"/><rect class="cls-3" x="235.12" y="455.72" width="63.84" height="62.45" transform="translate(422.53 -46.2) rotate(45)"/><rect class="cls-3" x="327.54" y="455.95" width="63.84" height="62.45" transform="translate(449.77 -111.49) rotate(45)"/><rect class="cls-3" x="325.37" y="365.47" width="63.84" height="62.45" transform="translate(385.15 -136.45) rotate(45)"/><rect class="cls-3" x="416.63" y="366.47" width="63.84" height="62.45" transform="translate(412.59 -200.69) rotate(45)"/><rect class="cls-3" x="322.38" y="272.22" width="63.84" height="62.45" transform="translate(318.34 -161.65) rotate(45)"/><rect class="cls-3" x="415.6" y="273.25" width="63.84" height="62.45" transform="translate(346.37 -227.27) rotate(45)"/><rect class="cls-3" x="414.57" y="180.03" width="63.84" height="62.45" transform="translate(280.16 -253.84) rotate(45)"/><rect class="cls-3" x="324.48" y="179.04" width="63.84" height="62.45" transform="translate(253.07 -190.43) rotate(45)"/></g></g></svg>